<svg width="1200" height="800" viewBox="0 0 1200 800" fill="none" xmlns="http://www.w3.org/2000/svg">
  <rect width="1200" height="800" fill="#E7E1D7"/>
  <rect x="92" y="96" width="1016" height="608" rx="34" fill="#FAF7F1"/>
  <rect x="148" y="144" width="904" height="512" rx="28" fill="#E9DDCD"/>
  <rect x="220" y="462" width="760" height="102" rx="24" fill="#24343B"/>
  <rect x="268" y="238" width="420" height="196" rx="18" fill="#F8F4ED"/>
  <rect x="730" y="226" width="178" height="240" rx="18" fill="#D4BEA8"/>
  <rect x="764" y="270" width="110" height="130" rx="14" fill="#FCF9F4"/>
  <rect x="308" y="276" width="342" height="18" rx="9" fill="#2E6B67"/>
  <rect x="308" y="320" width="292" height="18" rx="9" fill="#C76737"/>
  <rect x="308" y="364" width="244" height="18" rx="9" fill="#24343B"/>
  <rect x="336" y="496" width="170" height="30" rx="15" fill="#C76737"/>
  <rect x="558" y="496" width="170" height="30" rx="15" fill="#F4ECDD"/>
  <rect x="780" y="496" width="136" height="30" rx="15" fill="#2E6B67"/>
  <circle cx="844" cy="204" r="48" fill="#FAF7F1"/>
  <text x="148" y="116" fill="#24343B" font-family="Arial, sans-serif" font-size="38" font-weight="700">Office Suite</text>
</svg>
