<svg width="1200" height="800" viewBox="0 0 1200 800" fill="none" xmlns="http://www.w3.org/2000/svg">
  <rect width="1200" height="800" fill="#EEE4D7"/>
  <rect x="74" y="86" width="1052" height="628" rx="34" fill="#F8F3EB"/>
  <rect x="118" y="132" width="964" height="536" rx="28" fill="#24353D"/>
  <rect x="188" y="198" width="824" height="404" rx="26" fill="#F2E7D8"/>
  <ellipse cx="600" cy="430" rx="232" ry="118" fill="#D1BDA8"/>
  <rect x="570" y="258" width="60" height="142" rx="30" fill="#C76737"/>
  <rect x="586" y="222" width="28" height="78" rx="14" fill="#182127"/>
  <rect x="416" y="312" width="42" height="178" rx="21" fill="#182127"/>
  <rect x="742" y="312" width="42" height="178" rx="21" fill="#182127"/>
  <circle cx="437" cy="282" r="36" fill="#2E6B67"/>
  <circle cx="763" cy="282" r="36" fill="#2E6B67"/>
  <rect x="474" y="496" width="252" height="28" rx="14" fill="#24353D"/>
  <rect x="262" y="224" width="84" height="226" rx="16" fill="#D7C2AE"/>
  <rect x="854" y="224" width="84" height="226" rx="16" fill="#D7C2AE"/>
  <text x="118" y="108" fill="#24353D" font-family="Arial, sans-serif" font-size="38" font-weight="700">Podcast Room</text>
</svg>
