<svg width="1200" height="800" viewBox="0 0 1200 800" fill="none" xmlns="http://www.w3.org/2000/svg">
  <rect width="1200" height="800" fill="#E9DFCF"/>
  <rect x="62" y="72" width="1076" height="656" rx="32" fill="#1E2A30"/>
  <rect x="118" y="128" width="964" height="544" rx="26" fill="#F4EDE3"/>
  <rect x="160" y="170" width="420" height="460" rx="22" fill="#22343B"/>
  <rect x="618" y="170" width="422" height="268" rx="22" fill="#D9C6B3"/>
  <rect x="618" y="470" width="422" height="160" rx="22" fill="#EEE3D3"/>
  <rect x="214" y="234" width="164" height="286" rx="18" fill="#0F171B"/>
  <circle cx="296" cy="316" r="72" fill="#C76A3A"/>
  <circle cx="296" cy="316" r="48" fill="#26363D"/>
  <circle cx="296" cy="316" r="16" fill="#D8C3AF"/>
  <rect x="434" y="226" width="56" height="334" rx="28" fill="#C76A3A"/>
  <rect x="454" y="194" width="18" height="84" rx="9" fill="#2D6B68"/>
  <rect x="690" y="232" width="280" height="144" rx="18" fill="#F6F0E8"/>
  <rect x="718" y="260" width="224" height="88" rx="14" fill="#22343B"/>
  <rect x="708" y="520" width="116" height="56" rx="14" fill="#2D6B68"/>
  <rect x="842" y="520" width="154" height="56" rx="14" fill="#C76A3A"/>
  <text x="160" y="108" fill="#F7F2EA" font-family="Arial, sans-serif" font-size="38" font-weight="700">Recording Studio</text>
</svg>
