<svg width="1200" height="800" viewBox="0 0 1200 800" fill="none" xmlns="http://www.w3.org/2000/svg">
  <rect width="1200" height="800" fill="#E8DED0"/>
  <rect x="72" y="84" width="1056" height="632" rx="34" fill="#202C31"/>
  <rect x="126" y="136" width="948" height="528" rx="28" fill="#F5EEE3"/>
  <rect x="176" y="414" width="848" height="190" rx="24" fill="#D8C4AF"/>
  <rect x="214" y="228" width="168" height="260" rx="18" fill="#2E6B67"/>
  <rect x="442" y="206" width="316" height="286" rx="22" fill="#F8F4ED"/>
  <rect x="810" y="218" width="152" height="244" rx="18" fill="#C76737"/>
  <rect x="508" y="266" width="182" height="126" rx="18" fill="#22343B"/>
  <circle cx="298" cy="198" r="54" fill="#F8F4ED"/>
  <circle cx="886" cy="184" r="62" fill="#F8F4ED"/>
  <rect x="240" y="470" width="182" height="42" rx="16" fill="#22343B"/>
  <rect x="474" y="470" width="256" height="42" rx="16" fill="#C76737"/>
  <rect x="782" y="470" width="188" height="42" rx="16" fill="#2E6B67"/>
  <rect x="260" y="252" width="76" height="190" rx="14" fill="#182127"/>
  <rect x="848" y="246" width="76" height="190" rx="14" fill="#182127"/>
  <text x="126" y="114" fill="#F5EEE3" font-family="Arial, sans-serif" font-size="38" font-weight="700">Production Set</text>
</svg>
